<?xml version="1.0" encoding="UTF-8" standalone="no"?>
<svg width="32px" height="32px" viewBox="0 0 32 32" version="1.1" xmlns="http://www.w3.org/2000/svg" xmlns:xlink="http://www.w3.org/1999/xlink">
    <!-- Generator: Sketch 40.1 (33804) - http://www.bohemiancoding.com/sketch -->
    <title>Oval</title>
    <desc>Created with Sketch.</desc>
    <defs></defs>
    <g id="Page-1" stroke="none" stroke-width="1" fill="none" fill-rule="evenodd">
        <circle id="Oval" fill="#0071BC" cx="16" cy="16" r="16"></circle>
        <path d="M16.1328125,12.15625 L18.7142857,12.15625 L18.4129464,15.0089286 L16.1328125,15.0089286 L16.1328125,23.2857143 L12.7075893,23.2857143 L12.7075893,15.0089286 L11,15.0089286 L11,12.15625 L12.7075893,12.15625 L12.7075893,10.4386161 C12.7075893,9.21985998 12.9955328,8.29743617 13.5714286,7.67131696 C14.1473243,7.04519776 15.0948595,6.73214286 16.4140625,6.73214286 L18.6941964,6.73214286 L18.6941964,9.58482143 L17.2678571,9.58482143 C17.0066951,9.58482143 16.7974338,9.6065846 16.640067,9.65011161 C16.4827001,9.69363861 16.368862,9.77232086 16.2985491,9.88616071 C16.2282363,10.0000006 16.1830358,10.1155128 16.1629464,10.2327009 C16.142857,10.349889 16.1328125,10.5156239 16.1328125,10.7299107 L16.1328125,12.15625 Z" id="fb" fill="#FFFFFF"></path>
    </g>
</svg>