<?xml version="1.0" encoding="UTF-8" standalone="no"?>
<svg width="32px" height="32px" viewBox="0 0 32 32" version="1.1" xmlns="http://www.w3.org/2000/svg" xmlns:xlink="http://www.w3.org/1999/xlink">
    <!-- Generator: Sketch 40.1 (33804) - http://www.bohemiancoding.com/sketch -->
    <title>Oval</title>
    <desc>Created with Sketch.</desc>
    <defs></defs>
    <g id="Page-1" stroke="none" stroke-width="1" fill="none" fill-rule="evenodd">
        <circle id="Oval" fill="#0071BC" cx="16" cy="16" r="16"></circle>
        <path d="M21.6808036,21.8950893 L21.6808036,15.3861607 L20.3247768,15.3861607 C20.458706,15.8080378 20.5256696,16.2466495 20.5256696,16.7020089 C20.5256696,17.5457631 20.3113861,18.3242152 19.8828125,19.0373884 C19.4542389,19.7505616 18.8716555,20.3147301 18.1350446,20.7299107 C17.3984338,21.1450914 16.5948704,21.3526786 15.7243304,21.3526786 C14.4051273,21.3526786 13.2767904,20.8990001 12.3392857,19.9916295 C11.401781,19.0842589 10.9330357,17.9877296 10.9330357,16.7020089 C10.9330357,16.2466495 10.9999993,15.8080378 11.1339286,15.3861607 L9.71763393,15.3861607 L9.71763393,21.8950893 C9.71763393,22.0691973 9.77622709,22.2148432 9.89341518,22.3320312 C10.0106033,22.4492193 10.1562491,22.5078125 10.3303571,22.5078125 L21.0680804,22.5078125 C21.2354919,22.5078125 21.3794637,22.4492193 21.5,22.3320312 C21.6205363,22.2148432 21.6808036,22.0691973 21.6808036,21.8950893 L21.6808036,21.8950893 Z M18.828125,16.5412946 C18.828125,15.7109333 18.5251146,15.0027931 17.9190848,14.4168527 C17.313055,13.8309122 16.5814775,13.5379464 15.7243304,13.5379464 C14.8738797,13.5379464 14.1456504,13.8309122 13.5396205,14.4168527 C12.9335907,15.0027931 12.6305804,15.7109333 12.6305804,16.5412946 C12.6305804,17.3716559 12.9335907,18.0797962 13.5396205,18.6657366 C14.1456504,19.251677 14.8738797,19.5446429 15.7243304,19.5446429 C16.5814775,19.5446429 17.313055,19.251677 17.9190848,18.6657366 C18.5251146,18.0797962 18.828125,17.3716559 18.828125,16.5412946 L18.828125,16.5412946 Z M21.6808036,12.9252232 L21.6808036,11.2678571 C21.6808036,11.0803562 21.61384,10.9179694 21.4799107,10.780692 C21.3459815,10.6434145 21.1819206,10.5747768 20.9877232,10.5747768 L19.2399554,10.5747768 C19.045758,10.5747768 18.8816971,10.6434145 18.7477679,10.780692 C18.6138386,10.9179694 18.546875,11.0803562 18.546875,11.2678571 L18.546875,12.9252232 C18.546875,13.1194206 18.6138386,13.2834815 18.7477679,13.4174107 C18.8816971,13.55134 19.045758,13.6183036 19.2399554,13.6183036 L20.9877232,13.6183036 C21.1819206,13.6183036 21.3459815,13.55134 21.4799107,13.4174107 C21.61384,13.2834815 21.6808036,13.1194206 21.6808036,12.9252232 L21.6808036,12.9252232 Z M23.4285714,10.8359375 L23.4285714,22.3069196 C23.4285714,22.8493331 23.2343769,23.3147302 22.8459821,23.703125 C22.4575873,24.0915198 21.9921902,24.2857143 21.4497768,24.2857143 L9.97879464,24.2857143 C9.43638122,24.2857143 8.97098408,24.0915198 8.58258929,23.703125 C8.19419449,23.3147302 8,22.8493331 8,22.3069196 L8,10.8359375 C8,10.2935241 8.19419449,9.82812694 8.58258929,9.43973214 C8.97098408,9.05133734 9.43638122,8.85714286 9.97879464,8.85714286 L21.4497768,8.85714286 C21.9921902,8.85714286 22.4575873,9.05133734 22.8459821,9.43973214 C23.2343769,9.82812694 23.4285714,10.2935241 23.4285714,10.8359375 L23.4285714,10.8359375 Z" id="instagram" fill="#FFFFFF"></path>
    </g>
</svg>