<?xml version="1.0" encoding="UTF-8" standalone="no"?>
<svg width="32px" height="32px" viewBox="0 0 32 32" version="1.1" xmlns="http://www.w3.org/2000/svg" xmlns:xlink="http://www.w3.org/1999/xlink">
    <!-- Generator: Sketch 40.1 (33804) - http://www.bohemiancoding.com/sketch -->
    <title>Oval</title>
    <desc>Created with Sketch.</desc>
    <defs></defs>
    <g id="Page-1" stroke="none" stroke-width="1" fill="none" fill-rule="evenodd">
        <circle id="Oval" fill="#0071BC" cx="16" cy="16" r="16"></circle>
        <path d="M12.5055804,11.8493304 L12.5055804,21.8035714 L9.19084821,21.8035714 L9.19084821,11.8493304 L12.5055804,11.8493304 Z M12.7165179,8.77566964 C12.7232143,9.26451137 12.5541312,9.67298943 12.2092634,10.0011161 C11.8643956,10.3292427 11.4107171,10.4933036 10.8482143,10.4933036 L10.828125,10.4933036 C10.2790151,10.4933036 9.83705525,10.3292427 9.50223214,10.0011161 C9.16740904,9.67298943 9,9.26451137 9,8.77566964 C9,8.28013145 9.17243131,7.8699793 9.51729911,7.54520089 C9.8621669,7.22042248 10.3124972,7.05803571 10.8683036,7.05803571 C11.4241099,7.05803571 11.869418,7.22042248 12.2042411,7.54520089 C12.5390642,7.8699793 12.7098214,8.28013145 12.7165179,8.77566964 L12.7165179,8.77566964 Z M24.4285714,16.0982143 L24.4285714,21.8035714 L21.1238839,21.8035714 L21.1238839,16.4799107 C21.1238839,15.7767822 20.9882826,15.2260065 20.7170759,14.827567 C20.4458692,14.4291275 20.0223243,14.2299107 19.4464286,14.2299107 C19.0245515,14.2299107 18.6713184,14.345423 18.3867188,14.5764509 C18.1021191,14.8074788 17.8895096,15.0937483 17.7488839,15.4352679 C17.6752228,15.6361617 17.6383929,15.9073644 17.6383929,16.2488839 L17.6383929,21.8035714 L14.3337054,21.8035714 C14.3470983,19.1316831 14.3537946,16.9654101 14.3537946,15.3046875 C14.3537946,13.6439649 14.3504465,12.6529034 14.34375,12.3314732 L14.3337054,11.8493304 L17.6383929,11.8493304 L17.6383929,13.2957589 L17.6183036,13.2957589 C17.7522328,13.0814721 17.8895082,12.893974 18.0301339,12.7332589 C18.1707596,12.5725438 18.3599318,12.3984384 18.5976562,12.2109375 C18.8353807,12.0234366 19.1266724,11.8777907 19.4715402,11.7739955 C19.816408,11.6702004 20.1997747,11.6183036 20.6216518,11.6183036 C21.7667468,11.6183036 22.6874965,11.9983221 23.3839286,12.7583705 C24.0803606,13.518419 24.4285714,14.6316891 24.4285714,16.0982143 L24.4285714,16.0982143 Z" id="instagram" fill="#FFFFFF"></path>
    </g>
</svg>