<?xml version="1.0" encoding="UTF-8" standalone="no"?>
<svg width="32px" height="32px" viewBox="0 0 32 32" version="1.1" xmlns="http://www.w3.org/2000/svg" xmlns:xlink="http://www.w3.org/1999/xlink">
    <!-- Generator: Sketch 40.1 (33804) - http://www.bohemiancoding.com/sketch -->
    <title>Oval</title>
    <desc>Created with Sketch.</desc>
    <defs></defs>
    <g id="Page-1" stroke="none" stroke-width="1" fill="none" fill-rule="evenodd">
        <circle id="Oval" fill="#0071BC" cx="16" cy="16" r="16"></circle>
        <path d="M24.2723214,11.6696429 C23.8236585,12.3258961 23.2812532,12.8850423 22.6450893,13.3470982 C22.6517857,13.4408487 22.6551339,13.5814723 22.6551339,13.7689732 C22.6551339,14.6395133 22.5279031,15.5083662 22.2734375,16.375558 C22.0189719,17.2427499 21.6322571,18.0747728 21.1132812,18.8716518 C20.5943054,19.6685308 19.9765661,20.3733228 19.2600446,20.9860491 C18.5435232,21.5987754 17.6796926,22.0876098 16.6685268,22.452567 C15.657361,22.8175241 14.5758986,23 13.4241071,23 C11.6093659,23 9.94866825,22.5145138 8.44196429,21.5435268 C8.67634046,21.5703126 8.93749856,21.5837054 9.22544643,21.5837054 C10.7321504,21.5837054 12.0747709,21.1216564 13.2533482,20.1975446 C12.5502197,20.1841517 11.9207617,19.9681941 11.3649554,19.5496652 C10.809149,19.1311363 10.4274564,18.5971015 10.2198661,17.9475446 C10.4408493,17.981027 10.6450883,17.9977679 10.8325893,17.9977679 C11.1205372,17.9977679 11.4051325,17.9609379 11.6863839,17.8872768 C10.9363802,17.7332582 10.3152926,17.359936 9.82310268,16.7672991 C9.33091272,16.1746622 9.08482143,15.4866111 9.08482143,14.703125 L9.08482143,14.6629464 C9.54018085,14.917412 10.0290152,15.0546874 10.5513393,15.0747768 C10.1093728,14.7801325 9.75781381,14.3950917 9.49665179,13.9196429 C9.23548977,13.4441941 9.10491071,12.9285742 9.10491071,12.3727679 C9.10491071,11.7834792 9.25223067,11.2377257 9.546875,10.7354911 C10.3571469,11.7332639 11.3431862,12.531805 12.5050223,13.1311384 C13.6668585,13.7304717 14.9107077,14.0636157 16.2366071,14.1305804 C16.1830354,13.8761148 16.15625,13.6283494 16.15625,13.3872768 C16.15625,12.4899509 16.4726531,11.7248916 17.1054688,11.0920759 C17.7382844,10.4592602 18.5033437,10.1428571 19.4006696,10.1428571 C20.3381743,10.1428571 21.128345,10.4843716 21.7712054,11.1674107 C22.5011197,11.026785 23.1874968,10.7656269 23.8303571,10.3839286 C23.582588,11.1540217 23.1071464,11.7499979 22.4040179,12.171875 C23.0267888,12.1049104 23.6495505,11.9375013 24.2723214,11.6696429 L24.2723214,11.6696429 Z" id="twitter" fill="#FFFFFF"></path>
    </g>
</svg>