<?xml version="1.0" encoding="UTF-8" standalone="no"?>
<svg width="32px" height="32px" viewBox="0 0 32 32" version="1.1" xmlns="http://www.w3.org/2000/svg" xmlns:xlink="http://www.w3.org/1999/xlink">
    <!-- Generator: Sketch 40.1 (33804) - http://www.bohemiancoding.com/sketch -->
    <title>Oval</title>
    <desc>Created with Sketch.</desc>
    <defs></defs>
    <g id="Page-1" stroke="none" stroke-width="1" fill="none" fill-rule="evenodd">
        <circle id="Oval" fill="#0071BC" cx="16" cy="16" r="16"></circle>
        <path d="M19.4285714,16.2857143 C19.4285714,16.0654751 19.3392866,15.9047624 19.1607143,15.8035714 L14.5892857,12.9464286 C14.404761,12.8273804 14.2113105,12.821428 14.0089286,12.9285714 C13.812499,13.0357148 13.7142857,13.2023798 13.7142857,13.4285714 L13.7142857,19.1428571 C13.7142857,19.3690487 13.812499,19.5357138 14.0089286,19.6428571 C14.1041671,19.6904764 14.1964281,19.7142857 14.2857143,19.7142857 C14.4047625,19.7142857 14.505952,19.6845241 14.5892857,19.625 L19.1607143,16.7678571 C19.3392866,16.6666662 19.4285714,16.5059535 19.4285714,16.2857143 L19.4285714,16.2857143 Z M24,16.2857143 C24,16.8571457 23.9970238,17.3035698 23.9910714,17.625 C23.985119,17.9464302 23.9598217,18.3526761 23.9151786,18.84375 C23.8705355,19.3348239 23.8035719,19.7738076 23.7142857,20.1607143 C23.6190471,20.5952403 23.4136921,20.961308 23.0982143,21.2589286 C22.7827365,21.5565491 22.4136926,21.7291664 21.9910714,21.7767857 C20.6696363,21.925596 18.6726324,22 16,22 C13.3273676,22 11.3303637,21.925596 10.0089286,21.7767857 C9.58630741,21.7291664 9.2157754,21.5565491 8.89732143,21.2589286 C8.57886746,20.961308 8.37202429,20.5952403 8.27678571,20.1607143 C8.19345196,19.7738076 8.12946451,19.3348239 8.08482143,18.84375 C8.04017835,18.3526761 8.01488098,17.9464302 8.00892857,17.625 C8.00297616,17.3035698 8,16.8571457 8,16.2857143 C8,15.7142829 8.00297616,15.2678588 8.00892857,14.9464286 C8.01488098,14.6249984 8.04017835,14.2187525 8.08482143,13.7276786 C8.12946451,13.2366047 8.19642813,12.797621 8.28571429,12.4107143 C8.38095286,11.9761883 8.58630795,11.6101205 8.90178571,11.3125 C9.21726348,11.0148795 9.58630741,10.8422621 10.0089286,10.7946429 C11.3303637,10.6458326 13.3273676,10.5714286 16,10.5714286 C18.6726324,10.5714286 20.6696363,10.6458326 21.9910714,10.7946429 C22.4136926,10.8422621 22.7842246,11.0148795 23.1026786,11.3125 C23.4211325,11.6101205 23.6279757,11.9761883 23.7232143,12.4107143 C23.806548,12.797621 23.8705355,13.2366047 23.9151786,13.7276786 C23.9598217,14.2187525 23.985119,14.6249984 23.9910714,14.9464286 C23.9970238,15.2678588 24,15.7142829 24,16.2857143 L24,16.2857143 Z" id="instagram" fill="#FFFFFF"></path>
    </g>
</svg>