<?xml version="1.0" encoding="UTF-8"?>
<svg width="8px" height="13px" viewBox="0 0 8 13" version="1.1" xmlns="http://www.w3.org/2000/svg" xmlns:xlink="http://www.w3.org/1999/xlink">
    <!-- Generator: Sketch 44.1 (41455) - http://www.bohemiancoding.com/sketch -->
    <title>angle-right</title>
    <desc>Created with Sketch.</desc>
    <defs></defs>
    <g id="Page-1" stroke="none" stroke-width="1" fill="none" fill-rule="evenodd">
        <g id="angle-right" fill-rule="nonzero" fill="#FFFFFF">
            <path d="M10.0859375,3.914062 C10.0859375,4.19010505 9.9895843,4.4244777 9.796875,4.617187 L4.7109375,9.7031245 C4.51301984,9.90104216 4.27604305,9.9999995 4,9.9999995 C3.71874859,9.9999995 3.48437594,9.90104216 3.296875,9.7031245 L-1.7890625,4.617187 C-1.98698016,4.42968606 -2.0859375,4.19531341 -2.0859375,3.914062 C-2.0859375,3.63801895 -1.98698016,3.40104216 -1.7890625,3.2031245 L-1.2109375,2.617187 C-1.00781148,2.4244777 -0.770834688,2.3281245 -0.5,2.3281245 C-0.223956953,2.3281245 0.0104157031,2.4244777 0.203125,2.617187 L4,6.414062 L7.796875,2.617187 C7.9895843,2.4244777 8.22395695,2.3281245 8.5,2.3281245 C8.77083469,2.3281245 9.00781148,2.4244777 9.2109375,2.617187 L9.796875,3.2031245 C9.9895843,3.40625052 10.0859375,3.64322731 10.0859375,3.914062 L10.0859375,3.914062 Z" id="ï¸" transform="translate(4.000000, 6.164062) rotate(-90.000000) translate(-4.000000, -6.164062) "></path>
        </g>
    </g>
</svg>