<?xml version="1.0" encoding="UTF-8" standalone="no"?>
<svg width="9px" height="6px" viewBox="0 0 9 6" version="1.1" xmlns="http://www.w3.org/2000/svg" xmlns:xlink="http://www.w3.org/1999/xlink">
    <!-- Generator: Sketch 40.1 (33804) - http://www.bohemiancoding.com/sketch -->
    <title></title>
    <desc>Created with Sketch.</desc>
    <defs></defs>
    <g id="Page-1" stroke="none" stroke-width="1" fill="none" fill-rule="evenodd">
        <path d="M8.98995536,1.35714286 C8.98995536,1.55431646 8.92113164,1.7217255 8.78348214,1.859375 L5.15066964,5.4921875 C5.00929989,5.63355725 4.84003075,5.70424107 4.64285714,5.70424107 C4.44196328,5.70424107 4.27455424,5.63355725 4.140625,5.4921875 L0.5078125,1.859375 C0.366442746,1.72544576 0.295758929,1.55803672 0.295758929,1.35714286 C0.295758929,1.15996925 0.366442746,0.990700112 0.5078125,0.849330357 L0.920758929,0.430803571 C1.06584894,0.293154074 1.23511808,0.224330357 1.42857143,0.224330357 C1.62574503,0.224330357 1.79315407,0.293154074 1.93080357,0.430803571 L4.64285714,3.14285714 L7.35491071,0.430803571 C7.49256021,0.293154074 7.65996925,0.224330357 7.85714286,0.224330357 C8.05059621,0.224330357 8.21986535,0.293154074 8.36495536,0.430803571 L8.78348214,0.849330357 C8.92113164,0.994420368 8.98995536,1.16368951 8.98995536,1.35714286 L8.98995536,1.35714286 Z" id="" fill="#FFFFFF"></path>
    </g>
</svg>