<?xml version="1.0" encoding="UTF-8" standalone="no"?>
<svg width="210px" height="36px" viewBox="0 0 210 36" version="1.1" xmlns="http://www.w3.org/2000/svg" xmlns:xlink="http://www.w3.org/1999/xlink">
    <!-- Generator: Sketch 41.2 (35397) - http://www.bohemiancoding.com/sketch -->
    <title>logo-wbg-footer-es</title>
    <desc>Created with Sketch.</desc>
    <defs>
        <path d="M22.018,28.877 C24.317,28.85 26.498,28.514 28.428,27.863 C28.914,27.699 29.377,27.519 29.816,27.322 C29.28,28.634 28.49,29.728 27.463,30.541 C25.434,32.037 23.04,33.061 20.441,33.453 C21.092,32.328 21.616,30.742 22.018,28.877 M11.203,32.064 C11.155,32.025 11.103,31.988 11.045,31.96 C10.14,31.519 9.775,29.503 10.247,26.421 C11.983,27.202 13.876,27.819 15.864,28.245 C17.371,28.567 18.873,28.766 20.34,28.843 C19.62,31.972 18.696,33.614 18.087,33.614 C18.047,33.614 18.009,33.62 17.973,33.626 C15.55,33.611 13.255,33.052 11.203,32.064 M2.81,22.099 C2.671,21.572 2.584,21.033 2.549,20.484 C3.092,21.257 3.755,22.013 4.544,22.744 C5.734,23.844 7.148,24.828 8.724,25.672 C8.403,27.473 8.312,29.104 8.516,30.418 C5.799,28.363 3.768,25.457 2.81,22.099 M23.044,17.728 C23.044,17.093 23.034,16.455 23.016,15.818 C25.04,15.684 26.916,15.158 28.451,14.275 C29.872,17.087 30.636,20.054 30.629,22.855 C30.628,23.666 30.558,24.437 30.428,25.166 C29.698,25.613 28.856,26.002 27.909,26.32 C26.228,26.886 24.334,27.195 22.326,27.246 C22.811,24.353 23.044,20.994 23.044,17.728 M16.204,26.656 C14.188,26.222 12.283,25.584 10.558,24.773 C11.123,22.224 12.179,19.136 13.851,15.709 C14.093,15.212 14.342,14.725 14.594,14.245 C15.763,14.769 17.035,15.185 18.369,15.471 C19.382,15.689 20.396,15.807 21.388,15.84 C21.405,16.451 21.415,17.08 21.415,17.729 C21.415,21.563 21.108,24.745 20.665,27.229 C19.211,27.166 17.712,26.976 16.204,26.656 M5.649,21.549 C4.266,20.272 3.316,18.918 2.832,17.574 C3.216,16.068 3.957,14.557 5.051,13.11 C6.089,11.737 7.378,10.501 8.858,9.438 C9.284,10.209 9.883,10.962 10.643,11.676 C11.366,12.354 12.21,12.968 13.145,13.506 C12.887,13.994 12.634,14.491 12.39,14.997 C10.946,17.955 9.766,21.13 9.075,24.011 C7.789,23.285 6.634,22.459 5.649,21.549 M21.938,6.422 C23.789,7.8 25.485,9.577 26.904,11.656 C27.173,12.051 27.426,12.451 27.667,12.855 C26.366,13.606 24.722,14.056 22.947,14.182 C22.798,11.373 22.466,8.671 21.938,6.422 M18.711,13.879 C17.533,13.628 16.413,13.266 15.382,12.814 C16.901,10.157 18.562,7.847 20.2,6.129 C20.712,8.144 21.141,10.852 21.323,14.211 C20.461,14.175 19.582,14.066 18.711,13.879 M11.755,10.487 C11.081,9.857 10.569,9.199 10.225,8.54 C11.75,7.622 13.438,6.874 15.236,6.334 C16.305,6.013 17.388,5.774 18.467,5.609 C16.908,7.355 15.352,9.573 13.925,12.08 C13.114,11.608 12.381,11.074 11.755,10.487 M8.254,5.301 C8.233,5.383 8.209,5.467 8.191,5.553 C8.026,6.321 8.045,7.107 8.239,7.887 C6.488,9.095 4.964,10.523 3.752,12.128 C3.382,12.617 3.051,13.116 2.752,13.618 C3.653,10.285 5.616,7.385 8.254,5.301 M9.781,5.892 C9.961,5.047 10.469,4.293 11.255,3.668 C13.153,3.1 15.365,3.237 17.689,4.087 C16.711,4.257 15.733,4.483 14.769,4.774 C12.973,5.313 11.279,6.049 9.727,6.945 C9.692,6.59 9.708,6.236 9.781,5.892 M22.988,3.747 C23.547,3.386 24.061,3.137 24.491,3.035 C25.307,3.363 26.116,3.78 26.884,4.308 C25.652,4.002 24.343,3.814 22.988,3.747 M20.246,2.005 C20.906,2.078 21.611,2.192 22.334,2.36 C21.88,2.603 21.41,2.909 20.933,3.274 C20.72,2.794 20.491,2.37 20.246,2.005 M18.481,2.644 C17.745,2.362 17.018,2.144 16.3,1.987 C16.875,1.923 17.458,1.886 18.05,1.886 C18.327,1.889 18.667,2.222 19.024,2.866 C18.844,2.789 18.662,2.714 18.481,2.644 M0.573,17.758 C0.573,19.42 0.812,21.029 1.248,22.555 C1.275,22.659 1.299,22.76 1.329,22.862 C1.335,22.882 1.344,22.899 1.351,22.919 C3.559,30.058 10.22,35.259 18.072,35.259 C21.705,35.259 25.083,34.146 27.883,32.243 C27.911,32.227 27.94,32.212 27.965,32.196 C28.132,32.083 28.293,31.964 28.449,31.839 C31.67,29.46 34.047,26.005 35.047,22.009 C35.103,21.825 35.153,21.638 35.193,21.448 C35.202,21.403 35.206,21.36 35.208,21.315 C35.445,20.167 35.571,18.975 35.571,17.758 C35.571,15.397 35.109,13.104 34.196,10.947 C34.021,10.533 33.544,10.34 33.129,10.515 C32.715,10.689 32.521,11.167 32.696,11.581 C33.524,13.536 33.943,15.616 33.943,17.758 C33.943,19.07 33.779,20.348 33.477,21.569 C33.237,22.339 32.814,23.051 32.23,23.698 C32.244,23.423 32.254,23.143 32.255,22.858 C32.261,19.735 31.398,16.438 29.796,13.338 C30.97,12.33 31.718,11.084 31.976,9.69 C32.058,9.249 31.766,8.824 31.323,8.743 C30.882,8.66 30.456,8.953 30.376,9.396 C30.206,10.318 29.728,11.162 28.978,11.881 C28.746,11.496 28.504,11.115 28.247,10.739 C26.818,8.644 25.121,6.832 23.263,5.387 C25.714,5.549 27.981,6.142 29.806,7.162 C30.092,7.325 30.473,7.32 30.74,7.097 C31.087,6.809 31.131,6.295 30.844,5.95 C28.221,2.281 23.686,0.259 18.07,0.259 C8.424,0.258 0.573,8.108 0.573,17.758" id="path-1"></path>
    </defs>
    <g id="Page-1" stroke="none" stroke-width="1" fill="none" fill-rule="evenodd" opacity="0.5">
        <g id="logo-wbg-footer-es">
            <g id="Group">
                <g transform="translate(40.000000, 12.000000)" id="Shape" fill="#FFFFFF">
                    <path d="M8.939,7.404 C8.939,9.082 7.798,11.052 4.982,11.052 C2.12,11.052 0.326,9.241 0.326,5.87 C0.326,2.513 2.076,0.661 4.952,0.661 C8.396,0.661 8.892,3.726 8.892,4.249 L6.717,4.587 C6.717,4.587 6.704,2.733 4.968,2.733 C3.666,2.733 2.764,3.739 2.764,5.87 C2.764,8.016 3.769,8.979 5.039,8.979 C6.337,8.979 6.747,8.161 6.747,7.403 L6.747,7.299 L4.588,7.299 L4.588,5.576 L8.938,5.576 L8.938,7.404 L8.939,7.404 Z"></path>
                    <path d="M19.187,10.922 C19.187,10.922 18.807,11.039 18.005,11.039 C14.748,11.039 15.74,7.301 13.64,7.301 L12.866,7.301 L12.866,10.965 L10.518,10.965 L10.518,0.75 L14.239,0.75 C16.865,0.75 18.237,1.684 18.237,4.033 C18.237,5.537 17.233,6.324 16.559,6.615 C17.48,7.537 17.48,9.127 18.75,9.127 L19.188,9.127 L19.188,10.922 L19.187,10.922 Z M13.974,5.537 C15.115,5.537 15.933,5.041 15.933,4.107 C15.933,3.171 15.26,2.618 14.135,2.618 L12.865,2.618 L12.865,5.537 L13.974,5.537 Z"></path>
                    <path d="M25.83,0.75 L28.179,0.75 L28.179,6.732 C28.179,9.988 26.355,11.052 24.168,11.052 C21.99,11.052 20.108,9.988 20.122,6.732 L20.137,0.75 L22.486,0.75 L22.486,6.908 C22.486,8.031 22.882,8.951 24.168,8.951 C25.45,8.951 25.831,8.033 25.831,6.908 L25.83,0.75 L25.83,0.75 Z"></path>
                    <path d="M30.065,10.965 L30.065,0.75 L33.731,0.75 C36.27,0.75 37.861,1.902 37.861,4.324 C37.861,6.72 36.121,7.799 34.049,7.799 L32.416,7.799 L32.416,10.965 L30.065,10.965 Z M33.627,5.945 C34.836,5.945 35.496,5.388 35.496,4.324 C35.496,3.331 34.881,2.617 33.54,2.617 L32.416,2.617 L32.416,5.945 L33.627,5.945 L33.627,5.945 Z"></path>
                    <path d="M38.707,5.871 C38.707,2.396 40.766,0.662 43.347,0.662 C45.948,0.662 48.006,2.399 48.006,5.871 C48.006,9.346 45.931,11.053 43.347,11.053 C40.78,11.052 38.707,9.345 38.707,5.871 Z M45.567,5.871 C45.567,3.537 44.562,2.734 43.347,2.734 C42.152,2.734 41.143,3.537 41.143,5.871 C41.143,8.191 42.136,9.039 43.347,9.039 C44.575,9.039 45.567,8.191 45.567,5.871 Z"></path>
                    <path d="M53.32,10.965 L53.32,0.75 L57.421,0.75 C59.509,0.75 60.735,1.537 60.735,3.478 C60.735,5.258 59.64,5.537 59.115,5.537 L59.115,5.564 C59.802,5.564 61.419,6.193 61.419,8.076 C61.419,10.221 59.786,10.965 57.904,10.965 L53.32,10.965 L53.32,10.965 Z M56.982,4.892 C57.962,4.892 58.31,4.47 58.31,3.755 C58.31,3.025 57.83,2.617 56.763,2.617 L55.671,2.617 L55.671,4.891 L56.982,4.891 L56.982,4.892 Z M57.259,9.097 C58.194,9.097 58.764,8.775 58.764,7.812 C58.764,6.894 58.106,6.527 57.202,6.527 L55.672,6.527 L55.672,9.097 L57.259,9.097 L57.259,9.097 Z"></path>
                    <path d="M68.384,8.541 L64.982,8.541 L64.196,10.965 L61.728,10.965 L65.481,0.751 L67.903,0.751 L71.639,10.965 L69.187,10.965 L68.384,8.541 Z M65.569,6.791 L67.815,6.791 L66.694,3.464 L65.569,6.791 Z"></path>
                    <polygon points="78.43 10.965 75.028 5.143 75.028 10.965 72.679 10.965 72.679 0.75 75.072 0.75 78.474 6.82 78.474 0.75 80.823 0.75 80.823 10.964 78.43 10.964"></polygon>
                    <path d="M91.027,9.082 C91.027,9.082 89.919,11.053 87.248,11.053 C84.33,11.053 82.358,9.242 82.358,5.871 C82.358,2.514 84.094,0.662 86.971,0.662 C90.704,0.662 91.027,3.741 91.027,4.37 L88.853,4.722 C88.853,4.722 88.837,2.736 86.999,2.736 C85.701,2.736 84.779,3.742 84.779,5.873 C84.779,8.019 86.02,8.982 87.364,8.982 C88.764,8.982 89.67,7.668 89.67,7.668 L91.027,9.082 Z"></path>
                    <path d="M91.977,5.871 C91.977,2.396 94.036,0.662 96.621,0.662 C99.218,0.662 101.274,2.399 101.274,5.871 C101.274,9.346 99.201,11.053 96.621,11.053 C94.049,11.052 91.977,9.345 91.977,5.871 Z M98.836,5.871 C98.836,3.537 97.832,2.734 96.62,2.734 C95.421,2.734 94.417,3.537 94.417,5.871 C94.417,8.191 95.409,9.039 96.62,9.039 C97.845,9.039 98.836,8.191 98.836,5.871 Z"></path>
                    <polygon points="108.256 5.508 108.256 10.965 105.904 10.965 105.904 0.75 108.285 0.75 111.158 6.775 114.181 0.75 116.413 0.75 116.413 10.964 114.065 10.964 114.122 5.228 111.89 9.724 110.312 9.724"></polygon>
                    <path d="M124.035,0.75 L126.385,0.75 L126.385,6.732 C126.385,9.988 124.563,11.052 122.371,11.052 C120.199,11.052 118.314,9.988 118.33,6.732 L118.344,0.75 L120.694,0.75 L120.694,6.908 C120.694,8.031 121.09,8.951 122.372,8.951 C123.657,8.951 124.036,8.033 124.036,6.908 L124.036,0.75 L124.035,0.75 Z"></path>
                    <polygon points="134.022 10.965 130.622 5.143 130.622 10.965 128.272 10.965 128.272 0.75 130.665 0.75 134.067 6.82 134.067 0.75 136.415 0.75 136.415 10.964 134.022 10.964"></polygon>
                    <path d="M138.403,10.965 L138.403,0.75 L141.542,0.75 C144.214,0.75 146.663,2.18 146.663,6.048 C146.663,9.737 144.401,10.964 141.952,10.964 L138.403,10.964 L138.403,10.965 Z M141.938,9.097 C143.352,9.097 144.36,8.017 144.36,6.017 C144.36,3.99 143.6,2.619 141.51,2.619 L140.75,2.619 L140.75,9.098 L141.938,9.098 L141.938,9.097 Z"></path>
                    <polygon points="148.199 10.965 148.199 0.75 150.549 0.75 150.549 10.964 148.199 10.964"></polygon>
                    <path d="M158.239,8.541 L154.841,8.541 L154.052,10.965 L151.587,10.965 L155.337,0.751 L157.759,0.751 L161.497,10.965 L159.046,10.965 L158.239,8.541 Z M155.424,6.791 L157.672,6.791 L156.549,3.464 L155.424,6.791 Z"></path>
                    <polygon points="162.533 10.965 162.533 0.75 164.883 0.75 164.883 9.097 169.192 9.097 169.192 10.964 162.533 10.964"></polygon>
                </g>
                <g id="Clipped">
                    <mask id="mask-2" fill="white">
                        <use xlink:href="#path-1"></use>
                    </mask>
                    <g id="SVGID_1_"></g>
                    <rect id="Rectangle-path" fill="#FFFFFF" mask="url(#mask-2)" x="0.573" y="0.258" width="35" height="34.998"></rect>
                </g>
            </g>
        </g>
    </g>
</svg>