<?xml version="1.0" encoding="UTF-8" standalone="no"?>
<svg width="247px" height="36px" viewBox="0 0 247 36" version="1.1" xmlns="http://www.w3.org/2000/svg" xmlns:xlink="http://www.w3.org/1999/xlink">
    <!-- Generator: Sketch 41.2 (35397) - http://www.bohemiancoding.com/sketch -->
    <title>logo-wbg-footer-ru</title>
    <desc>Created with Sketch.</desc>
    <defs>
        <path d="M21.745,28.922 C24.044,28.895 26.225,28.559 28.155,27.908 C28.641,27.746 29.105,27.566 29.544,27.369 C29.008,28.68 28.217,29.775 27.191,30.588 C25.162,32.082 22.767,33.108 20.169,33.498 C20.82,32.373 21.344,30.787 21.745,28.922 M10.932,32.112 C10.883,32.071 10.83,32.036 10.773,32.007 C9.869,31.566 9.504,29.552 9.975,26.468 C11.712,27.249 13.605,27.868 15.593,28.294 C17.1,28.614 18.601,28.814 20.069,28.892 C19.348,32.021 18.426,33.663 17.816,33.663 C17.775,33.663 17.738,33.669 17.702,33.675 C15.277,33.658 12.982,33.1 10.932,32.112 M2.538,22.147 C2.398,21.618 2.311,21.079 2.276,20.53 C2.82,21.305 3.483,22.061 4.271,22.79 C5.461,23.89 6.876,24.874 8.451,25.72 C8.131,27.519 8.039,29.15 8.243,30.464 C5.525,28.408 3.495,25.504 2.538,22.147 M22.771,17.776 C22.771,17.139 22.761,16.502 22.744,15.865 C24.767,15.731 26.643,15.205 28.179,14.322 C29.601,17.134 30.363,20.1 30.357,22.901 C30.356,23.712 30.286,24.483 30.157,25.212 C29.427,25.659 28.585,26.048 27.638,26.366 C25.956,26.932 24.062,27.241 22.056,27.294 C22.539,24.399 22.771,21.041 22.771,17.776 M15.932,26.701 C13.915,26.269 12.01,25.629 10.286,24.818 C10.852,22.269 11.907,19.181 13.58,15.754 C13.82,15.258 14.069,14.77 14.323,14.291 C15.492,14.814 16.763,15.231 18.097,15.517 C19.11,15.735 20.123,15.853 21.117,15.886 C21.134,16.496 21.143,17.126 21.143,17.776 C21.143,21.608 20.837,24.79 20.395,27.276 C18.939,27.213 17.439,27.024 15.932,26.701 M5.375,21.594 C3.993,20.317 3.042,18.963 2.558,17.619 C2.942,16.113 3.683,14.603 4.778,13.155 C5.816,11.782 7.105,10.545 8.584,9.483 C9.011,10.255 9.609,11.006 10.369,11.721 C11.093,12.398 11.936,13.013 12.872,13.551 C12.613,14.04 12.361,14.537 12.116,15.04 C10.673,17.999 9.493,21.174 8.801,24.055 C7.517,23.33 6.361,22.506 5.375,21.594 M21.666,6.469 C23.516,7.845 25.214,9.623 26.632,11.702 C26.901,12.096 27.154,12.497 27.396,12.902 C26.094,13.652 24.451,14.102 22.676,14.228 C22.526,11.42 22.192,8.717 21.666,6.469 M18.438,13.924 C17.26,13.674 16.141,13.313 15.11,12.86 C16.629,10.203 18.29,7.893 19.928,6.175 C20.44,8.19 20.87,10.899 21.052,14.256 C20.188,14.221 19.31,14.112 18.438,13.924 M11.482,10.533 C10.808,9.903 10.297,9.245 9.953,8.586 C11.478,7.668 13.167,6.92 14.964,6.381 C16.033,6.058 17.116,5.821 18.196,5.655 C16.637,7.402 15.081,9.62 13.654,12.126 C12.841,11.654 12.108,11.12 11.482,10.533 M7.981,5.347 C7.96,5.429 7.935,5.514 7.918,5.598 C7.753,6.366 7.772,7.153 7.966,7.933 C6.214,9.141 4.691,10.57 3.479,12.175 C3.109,12.663 2.777,13.162 2.479,13.664 C3.381,10.331 5.342,7.431 7.981,5.347 M9.509,5.939 C9.69,5.094 10.197,4.34 10.983,3.714 C12.882,3.147 15.093,3.284 17.416,4.134 C16.439,4.303 15.461,4.53 14.496,4.821 C12.701,5.36 11.006,6.096 9.455,6.992 C9.42,6.635 9.436,6.283 9.509,5.939 M22.715,3.794 C23.274,3.432 23.787,3.184 24.217,3.081 C25.033,3.408 25.842,3.826 26.61,4.354 C25.379,4.048 24.07,3.86 22.715,3.794 M19.972,2.05 C20.634,2.124 21.338,2.238 22.06,2.406 C21.607,2.65 21.136,2.955 20.659,3.319 C20.448,2.84 20.218,2.415 19.972,2.05 M18.208,2.69 C17.472,2.408 16.745,2.19 16.028,2.033 C16.602,1.97 17.185,1.932 17.777,1.931 C18.054,1.936 18.395,2.267 18.751,2.912 C18.571,2.836 18.39,2.759 18.208,2.69 M0.299,17.803 C0.299,19.467 0.539,21.074 0.975,22.6 C1.001,22.704 1.025,22.805 1.055,22.909 C1.061,22.927 1.07,22.944 1.076,22.964 C3.284,30.103 9.946,35.302 17.799,35.302 C21.432,35.302 24.809,34.189 27.609,32.286 C27.636,32.272 27.665,32.257 27.691,32.239 C27.857,32.128 28.018,32.007 28.174,31.884 C31.394,29.505 33.771,26.052 34.772,22.054 C34.828,21.87 34.877,21.683 34.919,21.495 C34.928,21.448 34.931,21.405 34.934,21.36 C35.172,20.212 35.297,19.02 35.297,17.803 C35.297,15.442 34.834,13.15 33.922,10.992 C33.748,10.577 33.269,10.384 32.856,10.56 C32.441,10.732 32.248,11.212 32.423,11.624 C33.251,13.58 33.671,15.658 33.671,17.801 C33.671,19.114 33.507,20.39 33.204,21.613 C32.965,22.383 32.542,23.095 31.958,23.742 C31.973,23.467 31.981,23.187 31.983,22.902 C31.989,19.779 31.126,16.482 29.524,13.381 C30.699,12.374 31.447,11.128 31.705,9.734 C31.787,9.292 31.495,8.868 31.053,8.787 C30.611,8.703 30.185,8.996 30.105,9.439 C29.935,10.36 29.457,11.205 28.708,11.924 C28.475,11.539 28.233,11.157 27.977,10.781 C26.549,8.687 24.851,6.875 22.993,5.429 C25.445,5.591 27.713,6.185 29.537,7.204 C29.823,7.367 30.204,7.363 30.471,7.139 C30.817,6.851 30.862,6.338 30.575,5.991 C27.952,2.322 23.417,0.3 17.802,0.3 C8.151,0.304 0.299,8.155 0.299,17.803" id="path-1"></path>
    </defs>
    <g id="Page-1" stroke="none" stroke-width="1" fill="none" fill-rule="evenodd" opacity="0.5">
        <g id="logo-wbg-footer-ru">
            <g id="Group">
                <g transform="translate(39.000000, 12.000000)" id="Shape" fill="#FFFFFF">
                    <polygon points="7.08 0.685 7.08 2.585 3.206 2.585 3.206 10.926 0.881 10.926 0.881 0.685"></polygon>
                    <path d="M8.312,0.823 C9.026,0.701 10.029,0.609 11.442,0.609 C12.87,0.609 13.888,0.884 14.571,1.431 C15.224,1.947 15.665,2.796 15.665,3.802 C15.665,4.802 15.331,5.654 14.724,6.232 C13.934,6.976 12.764,7.312 11.397,7.312 C11.093,7.312 10.819,7.294 10.607,7.265 L10.607,10.925 L8.313,10.925 L8.312,0.823 L8.312,0.823 Z M10.606,5.471 C10.803,5.518 11.046,5.532 11.38,5.532 C12.61,5.532 13.37,4.91 13.37,3.862 C13.37,2.919 12.716,2.358 11.563,2.358 C11.091,2.358 10.772,2.403 10.606,2.448 L10.606,5.471 Z"></path>
                    <path d="M18.659,0.685 L20.148,4.287 C20.422,5.015 20.634,5.623 20.862,6.244 L20.907,6.244 C21.044,5.805 21.211,5.121 21.469,4.256 L22.578,0.685 L25.009,0.685 L23.095,5.652 C22.471,7.248 21.834,8.797 21.074,9.74 C20.406,10.574 19.554,11.094 18.354,11.094 C17.822,11.094 17.503,11.033 17.214,10.924 L17.381,9.07 C17.564,9.117 17.806,9.148 18.14,9.148 C18.854,9.148 19.341,8.662 19.523,8.189 C19.614,8.023 19.569,7.886 19.493,7.718 L16.044,0.684 L18.659,0.685 L18.659,0.685 Z"></path>
                    <polygon points="34.219 0.685 34.219 10.924 31.894 10.924 31.894 2.584 28.263 2.584 28.263 10.924 25.938 10.924 25.938 0.685"></polygon>
                    <polygon points="44.505 0.685 44.505 10.924 42.181 10.924 42.181 2.584 38.55 2.584 38.55 10.924 36.226 10.924 36.226 0.685"></polygon>
                    <path d="M48.899,8.297 L48.169,10.924 L45.769,10.924 L48.899,0.685 L51.937,0.685 L55.112,10.924 L52.62,10.924 L51.83,8.297 L48.899,8.297 L48.899,8.297 Z M51.498,6.565 L50.86,4.393 C50.677,3.785 50.495,3.026 50.342,2.418 L50.313,2.418 C50.16,3.025 50.009,3.801 49.841,4.393 L49.234,6.565 L51.498,6.565 Z"></path>
                    <path d="M59.08,0.823 C59.686,0.701 60.917,0.609 62.072,0.609 C63.485,0.609 64.351,0.747 65.096,1.187 C65.809,1.568 66.326,2.265 66.326,3.193 C66.326,4.105 65.793,4.956 64.64,5.381 L64.64,5.41 C65.809,5.729 66.677,6.611 66.677,7.933 C66.677,8.859 66.251,9.589 65.612,10.105 C64.867,10.699 63.622,11.033 61.586,11.033 C60.449,11.033 59.597,10.957 59.081,10.881 L59.08,0.823 L59.08,0.823 Z M61.374,4.74 L62.133,4.74 C63.349,4.74 64.002,4.24 64.002,3.479 C64.002,2.705 63.408,2.294 62.36,2.294 C61.859,2.294 61.571,2.323 61.373,2.355 L61.374,4.74 L61.374,4.74 Z M61.374,9.283 C61.601,9.314 61.875,9.314 62.27,9.314 C63.318,9.314 64.247,8.918 64.247,7.839 C64.247,6.806 63.319,6.396 62.164,6.396 L61.375,6.396 L61.374,9.283 L61.374,9.283 Z"></path>
                    <path d="M75.717,10.637 C75.292,10.85 74.336,11.076 73.088,11.076 C69.547,11.076 67.724,8.875 67.724,5.955 C67.724,2.462 70.215,0.518 73.315,0.518 C74.516,0.518 75.428,0.761 75.838,0.973 L75.367,2.813 C74.893,2.614 74.242,2.432 73.421,2.432 C71.582,2.432 70.153,3.541 70.153,5.821 C70.153,7.874 71.369,9.163 73.435,9.163 C74.133,9.163 74.908,9.011 75.366,8.829 L75.717,10.637 Z"></path>
                    <polygon points="83.33 6.596 79.563 6.596 79.563 9.028 83.771 9.028 83.771 10.924 77.237 10.924 77.237 0.685 83.556 0.685 83.556 2.585 79.562 2.585 79.562 4.711 83.329 4.711 83.329 6.596"></polygon>
                    <path d="M94.01,7.006 C93.965,5.774 93.92,4.285 93.92,2.795 L93.875,2.795 C93.559,4.104 93.133,5.562 92.734,6.762 L91.49,10.758 L89.681,10.758 L88.587,6.793 C88.251,5.592 87.903,4.133 87.659,2.795 L87.63,2.795 C87.569,4.179 87.523,5.758 87.446,7.035 L87.264,10.924 L85.121,10.924 L85.776,0.685 L88.862,0.685 L89.862,4.103 C90.182,5.288 90.501,6.564 90.729,7.765 L90.774,7.765 C91.065,6.579 91.413,5.226 91.747,4.087 L92.841,0.684 L95.864,0.684 L96.426,10.923 L94.162,10.923 L94.01,7.006 Z"></path>
                    <path d="M100.334,0.685 L100.334,3.724 C100.334,5.366 100.305,6.991 100.213,8.358 L100.274,8.358 C100.805,7.159 101.491,5.806 102.098,4.712 L104.301,0.686 L106.67,0.686 L106.67,10.925 L104.543,10.925 L104.543,7.902 C104.543,6.322 104.574,4.924 104.711,3.588 L104.666,3.588 C104.193,4.804 103.541,6.156 102.934,7.234 L100.852,10.925 L98.209,10.925 L98.209,0.685 L100.334,0.685 Z"></path>
                    <path d="M108.692,0.823 C109.405,0.701 110.409,0.609 111.823,0.609 C113.249,0.609 114.266,0.884 114.952,1.431 C115.604,1.947 116.044,2.796 116.044,3.802 C116.044,4.802 115.712,5.654 115.105,6.232 C114.314,6.976 113.144,7.312 111.777,7.312 C111.472,7.312 111.201,7.294 110.986,7.265 L110.986,10.925 L108.693,10.925 L108.693,0.823 L108.692,0.823 Z M110.985,5.471 C111.184,5.518 111.426,5.532 111.762,5.532 C112.991,5.532 113.752,4.91 113.752,3.862 C113.752,2.919 113.098,2.358 111.943,2.358 C111.47,2.358 111.154,2.403 110.984,2.448 L110.984,5.471 L110.985,5.471 Z"></path>
                    <polygon points="119.846 0.685 119.846 4.619 123.657 4.619 123.657 0.685 125.968 0.685 125.968 10.924 123.657 10.924 123.657 6.641 119.846 6.641 119.846 10.924 117.52 10.924 117.52 0.685"></polygon>
                    <path d="M137.366,5.698 C137.366,9.056 135.327,11.094 132.335,11.094 C129.298,11.094 127.521,8.797 127.521,5.881 C127.521,2.813 129.48,0.518 132.503,0.518 C135.647,0.518 137.366,2.873 137.366,5.698 Z M129.965,5.834 C129.965,7.84 130.906,9.254 132.457,9.254 C134.021,9.254 134.918,7.764 134.918,5.774 C134.918,3.936 134.037,2.356 132.441,2.356 C130.877,2.356 129.965,3.845 129.965,5.834 Z"></path>
                    <polygon points="145.084 0.685 145.084 2.585 141.209 2.585 141.209 10.926 138.885 10.926 138.885 0.685"></polygon>
                    <path d="M155.188,5.698 C155.188,9.056 153.153,11.094 150.159,11.094 C147.12,11.094 145.343,8.797 145.343,5.881 C145.343,2.813 147.302,0.518 150.325,0.518 C153.471,0.518 155.188,2.873 155.188,5.698 Z M147.79,5.834 C147.79,7.84 148.731,9.254 150.28,9.254 C151.844,9.254 152.743,7.764 152.743,5.774 C152.743,3.936 151.86,2.356 150.264,2.356 C148.7,2.356 147.79,3.845 147.79,5.834 Z"></path>
                    <path d="M166.586,0.685 L166.586,2.568 L162.088,2.568 L162.088,4.331 C162.438,4.285 162.924,4.255 163.332,4.255 C164.367,4.255 165.445,4.514 166.221,5.09 C166.936,5.607 167.407,6.412 167.407,7.537 C167.407,8.541 167.024,9.314 166.434,9.846 C165.448,10.727 163.834,11.032 162.272,11.032 C161.131,11.032 160.295,10.956 159.78,10.88 L159.78,0.685 L166.586,0.685 Z M162.073,9.239 C162.333,9.284 162.649,9.3 162.969,9.3 C163.533,9.3 164.094,9.118 164.473,8.769 C164.776,8.496 164.975,8.085 164.975,7.583 C164.975,7.067 164.764,6.687 164.428,6.429 C164.018,6.111 163.44,5.973 162.893,5.973 C162.637,5.973 162.362,5.989 162.075,6.034 L162.075,9.24 L162.073,9.24 L162.073,9.239 Z"></path>
                    <path d="M171.19,8.297 L170.463,10.924 L168.063,10.924 L171.19,0.685 L174.229,0.685 L177.405,10.924 L174.913,10.924 L174.124,8.297 L171.19,8.297 L171.19,8.297 Z M173.79,6.565 L173.151,4.393 C172.969,3.785 172.786,3.026 172.633,2.418 L172.604,2.418 C172.452,3.025 172.301,3.801 172.133,4.393 L171.526,6.565 L173.79,6.565 Z"></path>
                    <polygon points="181.096 0.685 181.096 4.619 184.912 4.619 184.912 0.685 187.219 0.685 187.219 10.924 184.912 10.924 184.912 6.641 181.096 6.641 181.096 10.924 178.774 10.924 178.774 0.685"></polygon>
                    <path d="M191.538,0.685 L191.538,4.939 L191.737,4.939 L194.559,0.685 L197.373,0.685 L193.803,5.227 C195.123,5.562 195.717,6.475 196.141,7.706 C196.506,8.798 196.842,9.907 197.327,10.925 L194.835,10.925 C194.485,10.228 194.29,9.437 194.046,8.677 C193.696,7.523 193.226,6.642 191.98,6.642 L191.539,6.642 L191.539,10.925 L189.246,10.925 L189.246,0.685 L191.538,0.685 Z"></path>
                    <path d="M201.002,8.297 L200.273,10.924 L197.873,10.924 L201.002,0.685 L204.041,0.685 L207.217,10.924 L204.727,10.924 L203.936,8.297 L201.002,8.297 L201.002,8.297 Z M203.602,6.565 L202.963,4.393 C202.781,3.785 202.6,3.026 202.449,2.418 L202.418,2.418 C202.266,3.025 202.113,3.801 201.945,4.393 L201.338,6.565 L203.602,6.565 Z"></path>
                </g>
                <g id="Clipped">
                    <mask id="mask-2" fill="white">
                        <use xlink:href="#path-1"></use>
                    </mask>
                    <g id="SVGID_1_"></g>
                    <rect id="Rectangle-path" fill="#FFFFFF" mask="url(#mask-2)" x="0.299" y="0.304" width="35" height="34.999"></rect>
                </g>
            </g>
        </g>
    </g>
</svg>