<?xml version="1.0" encoding="UTF-8" standalone="no"?>
<svg width="275px" height="36px" viewBox="0 0 275 36" version="1.1" xmlns="http://www.w3.org/2000/svg" xmlns:xlink="http://www.w3.org/1999/xlink">
    <!-- Generator: Sketch 41.2 (35397) - http://www.bohemiancoding.com/sketch -->
    <title>logo-wbg-footer-fr</title>
    <desc>Created with Sketch.</desc>
    <defs>
        <path d="M21.646,29.239 C23.945,29.212 26.126,28.876 28.056,28.225 C28.541,28.063 29.005,27.881 29.444,27.686 C28.908,28.997 28.118,30.09 27.09,30.905 C25.061,32.397 22.667,33.423 20.068,33.815 C20.72,32.69 21.244,31.104 21.646,29.239 M10.831,32.427 C10.782,32.386 10.731,32.351 10.673,32.322 C9.768,31.883 9.403,29.867 9.874,26.785 C11.611,27.566 13.504,28.185 15.492,28.609 C16.999,28.931 18.5,29.13 19.968,29.207 C19.248,32.336 18.325,33.978 17.715,33.978 C17.675,33.978 17.638,33.984 17.601,33.992 C15.178,33.974 12.882,33.417 10.831,32.427 M2.438,22.462 C2.299,21.935 2.211,21.396 2.176,20.847 C2.719,21.62 3.382,22.376 4.17,23.107 C5.361,24.207 6.775,25.191 8.351,26.035 C8.029,27.836 7.938,29.467 8.143,30.781 C5.426,28.726 3.395,25.819 2.438,22.462 M22.671,18.093 C22.671,17.456 22.662,16.818 22.644,16.181 C24.668,16.047 26.544,15.522 28.079,14.639 C29.5,17.451 30.262,20.418 30.256,23.219 C30.254,24.03 30.184,24.801 30.056,25.53 C29.325,25.977 28.484,26.366 27.537,26.684 C25.856,27.25 23.961,27.559 21.955,27.61 C22.439,24.716 22.671,21.356 22.671,18.093 M15.832,27.019 C13.815,26.587 11.91,25.947 10.185,25.136 C10.751,22.587 11.806,19.499 13.479,16.072 C13.721,15.576 13.969,15.088 14.223,14.61 C15.392,15.134 16.664,15.551 17.997,15.835 C19.01,16.053 20.023,16.171 21.017,16.205 C21.034,16.814 21.043,17.444 21.043,18.094 C21.043,21.926 20.737,25.11 20.295,27.594 C18.839,27.528 17.339,27.341 15.832,27.019 M5.275,21.911 C3.893,20.634 2.943,19.28 2.458,17.936 C2.842,16.431 3.584,14.92 4.678,13.472 C5.716,12.1 7.005,10.863 8.484,9.8 C8.911,10.572 9.508,11.324 10.269,12.038 C10.993,12.715 11.837,13.33 12.772,13.867 C12.514,14.356 12.261,14.853 12.016,15.357 C10.573,18.316 9.393,21.49 8.701,24.373 C7.417,23.647 6.261,22.821 5.275,21.911 M21.565,6.785 C23.417,8.162 25.113,9.939 26.532,12.019 C26.801,12.413 27.054,12.814 27.296,13.219 C25.994,13.969 24.351,14.42 22.576,14.546 C22.425,11.736 22.093,9.034 21.565,6.785 M18.338,14.241 C17.16,13.99 16.04,13.629 15.009,13.176 C16.528,10.519 18.189,8.209 19.827,6.492 C20.339,8.506 20.769,11.215 20.95,14.573 C20.087,14.538 19.21,14.429 18.338,14.241 M11.382,10.85 C10.709,10.221 10.197,9.562 9.853,8.903 C11.378,7.985 13.067,7.237 14.864,6.698 C15.933,6.376 17.016,6.138 18.095,5.972 C16.537,7.719 14.98,9.938 13.553,12.443 C12.741,11.971 12.009,11.438 11.382,10.85 M7.882,5.664 C7.86,5.746 7.836,5.831 7.818,5.915 C7.653,6.683 7.672,7.47 7.867,8.25 C6.115,9.458 4.592,10.887 3.379,12.492 C3.009,12.98 2.679,13.48 2.379,13.982 C3.281,10.648 5.242,7.748 7.882,5.664 M9.41,6.255 C9.59,5.41 10.097,4.656 10.884,4.031 C12.783,3.463 14.993,3.601 17.317,4.45 C16.34,4.62 15.362,4.846 14.398,5.138 C12.602,5.677 10.908,6.413 9.356,7.309 C9.32,6.953 9.335,6.599 9.41,6.255 M22.615,4.11 C23.174,3.748 23.687,3.5 24.117,3.397 C24.933,3.724 25.743,4.142 26.51,4.67 C25.28,4.365 23.97,4.177 22.615,4.11 M19.873,2.367 C20.534,2.441 21.238,2.555 21.962,2.723 C21.508,2.967 21.038,3.271 20.561,3.637 C20.347,3.156 20.118,2.732 19.873,2.367 M18.109,3.006 C17.373,2.724 16.646,2.506 15.928,2.349 C16.503,2.285 17.085,2.249 17.678,2.247 C17.954,2.251 18.295,2.583 18.651,3.228 C18.471,3.152 18.291,3.076 18.109,3.006 M0.2,18.12 C0.2,19.782 0.438,21.391 0.875,22.917 C0.9,23.021 0.925,23.122 0.955,23.226 C0.961,23.244 0.97,23.261 0.977,23.281 C3.185,30.42 9.847,35.621 17.7,35.621 C21.333,35.621 24.71,34.508 27.511,32.605 C27.538,32.589 27.567,32.576 27.593,32.558 C27.76,32.445 27.92,32.326 28.076,32.201 C31.296,29.822 33.674,26.369 34.675,22.373 C34.731,22.187 34.78,22.002 34.821,21.812 C34.831,21.767 34.834,21.722 34.837,21.679 C35.074,20.529 35.201,19.339 35.201,18.12 C35.201,15.759 34.738,13.467 33.826,11.309 C33.652,10.894 33.173,10.702 32.76,10.877 C32.345,11.05 32.153,11.529 32.327,11.942 C33.155,13.898 33.575,15.976 33.575,18.12 C33.575,19.432 33.412,20.708 33.109,21.931 C32.87,22.701 32.447,23.413 31.863,24.062 C31.877,23.785 31.886,23.505 31.887,23.22 C31.893,20.099 31.03,16.8 29.428,13.701 C30.602,12.694 31.351,11.448 31.608,10.053 C31.69,9.611 31.398,9.187 30.955,9.105 C30.514,9.022 30.088,9.315 30.007,9.758 C29.837,10.679 29.359,11.524 28.61,12.243 C28.377,11.858 28.135,11.477 27.879,11.099 C26.451,9.005 24.753,7.193 22.895,5.746 C25.346,5.908 27.614,6.502 29.439,7.521 C29.725,7.684 30.106,7.68 30.373,7.456 C30.72,7.168 30.764,6.655 30.477,6.308 C27.852,2.643 23.316,0.62 17.7,0.62 C8.051,0.62 0.2,8.47 0.2,18.12" id="path-1"></path>
    </defs>
    <g id="Page-1" stroke="none" stroke-width="1" fill="none" fill-rule="evenodd" opacity="0.5">
        <g id="logo-wbg-footer-fr">
            <g id="Group">
                <g transform="translate(39.000000, 12.000000)" id="Shape" fill="#FFFFFF">
                    <path d="M9.563,7.663 C9.563,9.341 8.425,11.311 5.608,11.311 C2.748,11.311 0.953,9.502 0.953,6.131 C0.953,2.776 2.704,0.921 5.578,0.921 C9.022,0.921 9.517,3.984 9.517,4.511 L7.343,4.846 C7.343,4.846 7.328,2.992 5.591,2.992 C4.293,2.992 3.388,3.999 3.388,6.13 C3.388,8.276 4.394,9.238 5.664,9.238 C6.962,9.238 7.372,8.422 7.372,7.662 L7.372,7.56 L5.213,7.56 L5.213,5.839 L9.561,5.839 L9.561,7.663 L9.563,7.663 Z"></path>
                    <path d="M19.81,11.181 C19.81,11.181 19.43,11.296 18.627,11.296 C15.373,11.296 16.365,7.56 14.264,7.56 L13.491,7.56 L13.491,11.224 L11.142,11.224 L11.142,1.009 L14.863,1.009 C17.489,1.009 18.861,1.943 18.861,4.292 C18.861,5.794 17.855,6.583 17.183,6.874 C18.102,7.794 18.102,9.384 19.371,9.384 L19.809,9.384 L19.81,11.181 L19.81,11.181 Z M14.601,5.796 C15.74,5.796 16.556,5.299 16.556,4.364 C16.556,3.43 15.886,2.876 14.762,2.876 L13.492,2.876 L13.492,5.794 L14.601,5.794 L14.601,5.796 Z"></path>
                    <path d="M20.337,6.131 C20.337,2.658 22.395,0.922 24.977,0.922 C27.575,0.922 29.632,2.659 29.632,6.131 C29.632,9.605 27.56,11.312 24.977,11.312 C22.41,11.312 20.337,9.604 20.337,6.131 Z M27.195,6.131 C27.195,3.796 26.189,2.993 24.977,2.993 C23.781,2.993 22.774,3.796 22.774,6.131 C22.774,8.45 23.767,9.296 24.977,9.296 C26.204,9.296 27.195,8.45 27.195,6.131 Z"></path>
                    <path d="M36.77,1.009 L39.12,1.009 L39.12,6.991 C39.12,10.245 37.296,11.311 35.107,11.311 C32.934,11.311 31.051,10.247 31.065,6.991 L31.08,1.009 L33.429,1.009 L33.429,7.167 C33.429,8.29 33.823,9.21 35.108,9.21 C36.392,9.21 36.771,8.292 36.771,7.167 L36.77,1.009 L36.77,1.009 Z"></path>
                    <path d="M41.004,11.224 L41.004,1.009 L44.667,1.009 C47.206,1.009 48.796,2.162 48.796,4.584 C48.796,6.978 47.06,8.058 44.988,8.058 L43.353,8.058 L43.353,11.224 L41.004,11.224 Z M44.564,6.204 C45.775,6.204 46.432,5.649 46.432,4.585 C46.432,3.593 45.819,2.877 44.476,2.877 L43.352,2.877 L43.352,6.204 L44.564,6.204 Z"></path>
                    <polygon points="50.097 11.224 50.097 1.009 56.707 1.009 56.707 2.876 52.446 2.876 52.446 5.24 55.7 5.24 55.7 7.079 52.446 7.079 52.446 9.354 56.707 9.354 56.707 11.223 50.097 11.223"></polygon>
                    <path d="M61.379,11.224 L61.379,1.009 L64.516,1.009 C67.186,1.009 69.638,2.44 69.638,6.306 C69.638,9.997 67.376,11.224 64.925,11.224 L61.379,11.224 Z M64.911,9.356 C66.326,9.356 67.333,8.276 67.333,6.276 C67.333,4.249 66.575,2.876 64.487,2.876 L63.729,2.876 L63.729,9.355 L64.912,9.355 L64.912,9.356 L64.911,9.356 Z"></path>
                    <polygon points="71.172 11.224 71.172 1.009 77.781 1.009 77.781 2.876 73.52 2.876 73.52 5.24 76.774 5.24 76.774 7.079 73.52 7.079 73.52 9.354 77.781 9.354 77.781 11.223 71.172 11.223"></polygon>
                    <polygon points="82.455 11.224 82.455 1.009 84.805 1.009 84.805 9.355 89.11 9.355 89.11 11.224"></polygon>
                    <path d="M95.939,8.802 L92.539,8.802 L91.751,11.224 L89.285,11.224 L93.036,1.009 L95.457,1.009 L99.192,11.224 L96.741,11.224 L95.939,8.802 Z M93.123,7.05 L95.37,7.05 L94.246,3.724 L93.123,7.05 Z"></path>
                    <path d="M102.962,11.224 L102.962,1.009 L107.062,1.009 C109.148,1.009 110.374,1.797 110.374,3.738 C110.374,5.518 109.28,5.795 108.755,5.795 L108.755,5.825 C109.441,5.825 111.06,6.453 111.06,8.334 C111.06,10.479 109.425,11.225 107.544,11.225 L102.962,11.225 L102.962,11.224 Z M106.624,5.153 C107.601,5.153 107.952,4.73 107.952,4.015 C107.952,3.286 107.47,2.876 106.405,2.876 L105.311,2.876 L105.311,5.152 L106.624,5.152 L106.624,5.153 Z M106.901,9.356 C107.835,9.356 108.403,9.032 108.403,8.071 C108.403,7.153 107.747,6.788 106.842,6.788 L105.311,6.788 L105.311,9.356 L106.901,9.356 Z"></path>
                    <path d="M118.022,8.802 L114.622,8.802 L113.835,11.224 L111.368,11.224 L115.118,1.009 L117.54,1.009 L121.276,11.224 L118.825,11.224 L118.022,8.802 Z M115.206,7.05 L117.454,7.05 L116.329,3.724 L115.206,7.05 Z"></path>
                    <polygon points="128.063 11.224 124.663 5.402 124.663 11.224 122.315 11.224 122.315 1.009 124.708 1.009 128.108 7.079 128.108 1.009 130.456 1.009 130.456 11.224"></polygon>
                    <path d="M139.974,14.636 C136.835,14.636 135.581,12.697 135.451,11.12 C133.451,10.669 131.992,9.018 131.992,6.071 C131.992,2.599 134.049,0.862 136.631,0.862 C139.231,0.862 141.287,2.599 141.287,6.071 C141.287,9.165 139.639,10.858 137.478,11.194 C137.667,12.141 138.529,12.768 139.974,12.768 L139.974,14.636 L139.974,14.636 Z M138.849,6.072 C138.849,3.738 137.843,2.936 136.63,2.936 C135.435,2.936 134.429,3.738 134.429,6.072 C134.429,8.393 135.419,9.239 136.63,9.239 C137.858,9.239 138.849,8.394 138.849,6.072 Z"></path>
                    <path d="M148.423,1.009 L150.774,1.009 L150.774,6.991 C150.774,10.245 148.95,11.311 146.761,11.311 C144.587,11.311 142.704,10.247 142.72,6.991 L142.734,1.009 L145.084,1.009 L145.084,7.167 C145.084,8.29 145.477,9.21 146.762,9.21 C148.047,9.21 148.426,8.292 148.426,7.167 L148.426,1.009 L148.423,1.009 Z"></path>
                    <polygon points="152.658 11.224 152.658 1.009 159.267 1.009 159.267 2.876 155.005 2.876 155.005 5.24 158.259 5.24 158.259 7.079 155.005 7.079 155.005 9.354 159.267 9.354 159.267 11.223 152.658 11.223"></polygon>
                    <polygon points="166.289 5.767 166.289 11.224 163.939 11.224 163.939 1.009 166.318 1.009 169.193 7.034 172.214 1.009 174.446 1.009 174.446 11.224 172.096 11.224 172.153 5.49 169.923 9.984 168.347 9.984"></polygon>
                    <path d="M175.996,6.131 C175.996,2.658 178.053,0.922 180.637,0.922 C183.235,0.922 185.291,2.659 185.291,6.131 C185.291,9.605 183.219,11.312 180.637,11.312 C178.068,11.312 175.996,9.604 175.996,6.131 Z M182.854,6.131 C182.854,3.796 181.848,2.993 180.637,2.993 C179.44,2.993 178.434,3.796 178.434,6.131 C178.434,8.45 179.426,9.296 180.637,9.296 C181.861,9.296 182.854,8.45 182.854,6.131 Z"></path>
                    <polygon points="192.559 11.224 189.161 5.402 189.161 11.224 186.811 11.224 186.811 1.009 189.204 1.009 192.604 7.079 192.604 1.009 194.954 1.009 194.954 11.224"></polygon>
                    <path d="M196.939,11.224 L196.939,1.009 L200.078,1.009 C202.748,1.009 205.199,2.44 205.199,6.306 C205.199,9.997 202.937,11.224 200.486,11.224 L196.939,11.224 Z M200.471,9.356 C201.887,9.356 202.893,8.276 202.893,6.276 C202.893,4.249 202.135,2.876 200.047,2.876 L199.289,2.876 L199.289,9.355 L200.471,9.355 L200.471,9.356 L200.471,9.356 Z"></path>
                    <polygon points="206.732 11.224 206.732 1.009 209.084 1.009 209.084 11.224"></polygon>
                    <path d="M216.773,8.802 L213.373,8.802 L212.584,11.224 L210.119,11.224 L213.869,1.009 L216.291,1.009 L220.027,11.224 L217.576,11.224 L216.773,8.802 Z M213.957,7.05 L216.203,7.05 L215.08,3.724 L213.957,7.05 Z"></path>
                    <polygon points="221.064 11.224 221.064 1.009 223.414 1.009 223.414 9.355 227.719 9.355 227.719 11.224"></polygon>
                    <polygon points="228.859 11.224 228.859 1.009 235.468 1.009 235.468 2.876 231.206 2.876 231.206 5.24 234.462 5.24 234.462 7.079 231.206 7.079 231.206 9.354 235.468 9.354 235.468 11.223 228.859 11.223"></polygon>
                </g>
                <g id="Clipped">
                    <mask id="mask-2" fill="white">
                        <use xlink:href="#path-1"></use>
                    </mask>
                    <g id="SVGID_1_"></g>
                    <rect id="Rectangle-path" fill="#FFFFFF" mask="url(#mask-2)" x="0.2" y="0.62" width="35" height="34.999"></rect>
                </g>
            </g>
        </g>
    </g>
</svg>